<?xml version="1.0" encoding="UTF-8" standalone="no"?>
<svg
   xmlns:dc="http://purl.org/dc/elements/1.1/"
   xmlns:cc="http://creativecommons.org/ns#"
   xmlns:rdf="http://www.w3.org/1999/02/22-rdf-syntax-ns#"
   xmlns:svg="http://www.w3.org/2000/svg"
   xmlns="http://www.w3.org/2000/svg"
   xmlns:sodipodi="http://sodipodi.sourceforge.net/DTD/sodipodi-0.dtd"
   xmlns:inkscape="http://www.inkscape.org/namespaces/inkscape"
   inkscape:version="1.0beta1 (32d4812, 2019-09-19)"
   sodipodi:docname="avocado-svgrepo-com_small.svg"
   height="43"
   width="43"
   xml:space="preserve"
   viewBox="0 0 37.258324 37.258324"
   y="0px"
   x="0px"
   id="Layer_1"
   version="1.1"><metadata
   id="metadata854">
  <rdf:RDF>
    <cc:Work
       rdf:about="">
      <dc:format>image/svg+xml</dc:format>
      <dc:type
         rdf:resource="http://purl.org/dc/dcmitype/StillImage" />
      <dc:title></dc:title>
    </cc:Work>
  </rdf:RDF>
</metadata>
<defs
   id="defs852" />
<sodipodi:namedview
   inkscape:current-layer="Layer_1"
   inkscape:window-maximized="0"
   inkscape:window-y="23"
   inkscape:window-x="0"
   inkscape:cy="71.322714"
   inkscape:cx="68.684982"
   inkscape:zoom="3.3564535"
   showgrid="false"
   id="namedview850"
   inkscape:window-height="907"
   inkscape:window-width="1600"
   inkscape:pageshadow="2"
   inkscape:pageopacity="0"
   guidetolerance="10"
   gridtolerance="10"
   objecttolerance="10"
   borderopacity="1"
   inkscape:document-rotation="0"
   bordercolor="#666666"
   pagecolor="#ffffff" />

<g
   transform="matrix(0.0732669,0.04230066,-0.04230066,0.0732669,13.223477,-7.583182)"
   id="g847">
	<path
   inkscape:connector-curvature="0"
   id="path833"
   d="m 332.17,188.526 c 18.44,35.52 29.43,75.48 29.43,107.82 0,77.2 -62.58,139.79 -139.78,139.79 -77.2,0 -139.79,-62.59 -139.79,-139.79 0,-32.34 10.99,-72.3 29.43,-107.82 11.16,-21.49 20.83,-43.7 28.85,-66.55 14.65,-41.76 45.64,-82.98 81.51,-82.98 35.86,0 66.85,41.22 81.51,82.98 8.01,22.85 17.68,45.06 28.84,66.55 z m -44.92,113.66 c 0,-36.14 -29.29,-94.04 -65.43,-94.04 -36.14,0 -65.44,57.9 -65.44,94.04 0,36.14 29.3,65.44 65.44,65.44 36.14,0 65.43,-29.3 65.43,-65.44 z"
   style="fill:#9ad14b" />

	<path
   inkscape:connector-curvature="0"
   id="path835"
   d="m 221.82,208.146 c 36.14,0 65.43,57.9 65.43,94.04 0,36.14 -29.29,65.44 -65.43,65.44 -36.14,0 -65.44,-29.3 -65.44,-65.44 0,-36.14 29.3,-94.04 65.44,-94.04 z"
   style="fill:#b27214" />

	<path
   inkscape:connector-curvature="0"
   id="path837"
   d="m 260.907,326.192 c -0.977,0 -1.968,-0.191 -2.923,-0.596 -3.813,-1.616 -5.596,-6.018 -3.98,-9.832 1.822,-4.3 2.746,-8.869 2.746,-13.578 0,-12.426 -5.981,-30.7 -14.545,-44.438 -2.512,-4.029 -5.163,-7.59 -7.881,-10.587 -2.783,-3.068 -2.553,-7.811 0.516,-10.594 3.066,-2.782 7.81,-2.553 10.594,0.516 3.319,3.659 6.516,7.942 9.5,12.73 10.216,16.386 16.816,36.944 16.816,52.373 0,6.731 -1.323,13.268 -3.934,19.43 -1.212,2.859 -3.988,4.576 -6.909,4.576 z"
   style="fill:#ffffff" />

	<g
   id="g843">
		<path
   inkscape:connector-curvature="0"
   id="path839"
   d="m 221.817,200.643 c -19.066,0 -37.76,13.14 -52.637,37 -12.522,20.085 -20.302,44.816 -20.302,64.542 0,40.218 32.72,72.938 72.938,72.938 40.218,0 72.938,-32.72 72.938,-72.938 0,-19.726 -7.779,-44.457 -20.302,-64.542 -14.876,-23.86 -33.569,-37 -52.635,-37 z m 0,159.479 c -31.947,0 -57.938,-25.991 -57.938,-57.938 0,-32.604 27.079,-86.542 57.938,-86.542 30.858,0 57.938,53.938 57.938,86.542 -10e-4,31.947 -25.991,57.938 -57.938,57.938 z"
   style="fill:#333333" />

		<path
   inkscape:connector-curvature="0"
   id="path841"
   d="M 338.827,185.072 C 327.753,163.743 318.188,141.678 310.402,119.489 296.006,78.468 265.837,37.102 229.317,32.022 V 7.5 c 0,-4.142 -3.357,-7.5 -7.5,-7.5 -4.143,0 -7.5,3.358 -7.5,7.5 v 24.522 c -36.521,5.08 -66.69,46.446 -81.086,87.467 -7.786,22.188 -17.35,44.253 -28.424,65.583 -18.956,36.508 -30.273,78.108 -30.273,111.279 0,81.212 66.071,147.283 147.283,147.283 81.212,0 147.283,-66.071 147.283,-147.283 0,-33.169 -11.317,-74.769 -30.273,-111.279 z m -117.01,243.562 c -72.941,0 -132.283,-59.342 -132.283,-132.283 0,-30.878 10.687,-69.894 28.586,-104.367 11.399,-21.956 21.246,-44.676 29.266,-67.528 13.176,-37.546 42.088,-77.957 74.432,-77.957 32.343,0 61.255,40.411 74.431,77.957 8.021,22.854 17.867,45.574 29.267,67.528 17.899,34.475 28.586,73.491 28.586,104.367 -0.002,72.941 -59.344,132.283 -132.285,132.283 z"
   style="fill:#333333" />

	</g>

	<circle
   id="circle845"
   r="7.5"
   cy="231.411"
   cx="221.869"
   style="fill:#ffffff" />

</g>
















</svg>
